<svg xmlns="http://www.w3.org/2000/svg" width="128" height="128"
     style="width:100%;height:100%;transform:translate3d(0,0,0);content-visibility:visible" viewBox="0 0 24 24">
    <defs>
        <clipPath id="a">
            <path d="M0 0h24v24H0z"/>
        </clipPath>
        <clipPath id="b">
            <path d="M0 0h600v600H0z"/>
        </clipPath>
        <clipPath id="k">
            <path d="M0 0h1000v1000H0z"/>
        </clipPath>
        <clipPath id="g">
            <path d="M0 0h1000v1000H0z"/>
        </clipPath>
        <clipPath id="j">
            <path d="M0 0h1000v1000H0z"/>
        </clipPath>
        <clipPath id="i">
            <path d="M0 0h1000v1000H0z"/>
        </clipPath>
        <clipPath id="c">
            <path d="M0 0h1000v1000H0z"/>
        </clipPath>
        <clipPath id="f">
            <path d="M0 0h1000v1000H0z"/>
        </clipPath>
        <clipPath id="e">
            <path d="M0 0h1000v1000H0z"/>
        </clipPath>
        <mask id="h">
            <path fill="#fff" d="M211.5384674 211.5384674H788.4615636V788.4615636H211.5384674z"/>
            <path d="M681.2199707 212.79600525 215.69700623 681.75s-63.93701172 67.48199463-14.56001282 117.11199951C255 853 319.67999268 785.05603027 319.67999268 785.05603027l465.52301025-468.95404052S868 234 816.21502686 184.44599915c-51.434021-49.21800232-134.99505616 28.3500061-134.99505616 28.3500061"/>
        </mask>
        <mask id="d">
            <path fill="#fff" d="M211.5384674 211.5384674H788.4615636V788.4615636H211.5384674z"/>
            <path d="m67.44400024 823.58197021-193.5550003 193.9840088 49.66500091 49.34197997 54.3179989 53.96398926 193.5550022-193.98394775s68.47399903-66.76000977 15.67799378-116.98797608c-56.8809967-54.11401367-119.66099549 13.6819458-119.66099549 13.6819458"/>
        </mask>
    </defs>
    <g clip-path="url(#a)">
        <g clip-path="url(#b)" style="display:block" transform="matrix(.04 0 0 .04 0 0)">
            <g clip-path="url(#g)" style="display:block" transform="translate(-220 -220) scale(1.03999996)">
                <g mask="url(#h)">
                    <g clip-path="url(#i)" style="display:block">
                        <path fill="#f04747"
                              d="M-8-.28799999C-8-4.70599985-4.41800022-8.2880001 0-8.2880001S8-4.70599985 8-.28799999c0 .693-.046 1.36000002-.1459999 2H6c-.94399977 0-1.83300018.44500005-2.4000001 1.19999993L1.62699997 5.54199982c-.46899998.6260004-.59099996 1.4460001-.32299995 2.18100023.58500004 1.60899973 2.58300006 2.56500006 4.17799985 1.40899992C8.83899975 6.7010002 10 3.3800001 10-.288 10-5.81099987 5.52299976-10.2880001 0-10.2880001S-10-5.81099987-10-.28799999c0 3.6680001 1.16100025 6.9890002 4.51800013 9.41999996 1.59499979 1.15600014 3.59299981.1999998 4.17799985-1.40899992.268-.73500013.14600003-1.55499983-.32299995-2.18100023L-3.5999999 2.91199994C-4.16699982 2.15700006-5.05600023 1.71200001-6 1.71200001h-1.8540001C-7.954 1.07200003-8 .40500001-8-.28799999z"
                              style="display:block" transform="matrix(25 0 0 25 500 507.20000267)"/>
                    </g>
                </g>
            </g>
            <path fill="none" stroke="#f04747" stroke-linecap="round" stroke-width="2" d="m-10 10 20-20"
                  style="display:block" transform="matrix(25 0 0 25 300 300)"/>
        </g>
    </g>
</svg>